<svg xmlns="http://www.w3.org/2000/svg" fill="#fff" viewBox="0 0 477.9 477.9"><path d="M444 68H324V51c0-28-23-51-51-51h-68c-28 0-51 23-51 51v17H34a17 17 0 100 34h19l32 360c1 9 9 16 17 16h273c9 0 17-7 18-16l32-360h19a17 17 0 100-34zM188 51c0-9 7-17 17-17h68c9 0 17 8 17 17v17H188V51zm172 393H118L87 102h304l-31 342z"/><path d="M188 391l-17-239a17 17 0 00-34 3l17 239c0 9 8 16 17 16h1c9-1 16-9 16-19zM239 137c-9 0-17 7-17 17v239a17 17 0 1034 0V154c0-10-8-17-17-17zM325 137c-9-1-17 6-18 15l-17 239c-1 10 7 18 16 19h1c9 0 17-7 17-16l17-239c1-10-6-18-16-18z"/></svg>